 <svg  version="1.0" xmlns="http://www.w3.org/2000/svg"  width="100.000000pt" height="128.000000pt" viewBox="0 0 100.000000 128.000000"  preserveAspectRatio="xMidYMid meet">  <g transform="translate(0.000000,128.000000) scale(0.100000,-0.100000)" fill="#e63333" stroke="none"> <path d="M626 1249 c13 -21 5 -88 -14 -126 -19 -37 -56 -74 -177 -177 -61 -52 -95 -99 -95 -130 0 -35 39 -100 99 -166 67 -73 90 -77 35 -6 -19 26 -44 67 -55 92 -31 69 -17 100 100 214 103 101 141 161 141 223 0 43 -15 87 -30 87 -6 0 -8 -5 -4 -11z"/> <path d="M760 1013 c-37 -14 -153 -75 -181 -95 -78 -58 -90 -135 -32 -219 40 -59 46 -98 18 -129 -30 -33 -1 -22 32 13 37 37 55 79 46 104 -3 10 -20 37 -36 60 -57 80 -37 125 89 209 46 31 84 58 84 60 0 2 -1 4 -2 3 -2 0 -10 -3 -18 -6z m-194 -255 c8 -18 21 -43 30 -55 9 -13 13 -23 8 -23 -11 0 -49 57 -58 88 -11 34 3 26 20 -10z"/> <path d="M804 585 c-17 -13 -16 -14 18 -8 31 4 41 1 63 -21 22 -22 26 -33 21 -59 -8 -38 -46 -80 -104 -114 -60 -36 -45 -40 26 -8 63 28 115 75 127 113 21 71 -90 143 -151 97z"/> <path d="M235 562 c-96 -32 -104 -51 -30 -70 71 -19 398 -10 480 13 69 18 101 41 45 31 -149 -26 -449 -36 -480 -16 -13 9 -12 12 5 25 11 9 37 18 57 22 21 3 41 10 44 14 10 17 -41 9 -121 -19z"/> <path d="M278 432 c-36 -22 -36 -45 0 -62 39 -19 240 -25 342 -10 103 15 109 18 74 37 -23 11 -41 12 -95 3 -74 -11 -216 -12 -264 -1 -23 5 -29 12 -28 29 2 12 2 22 0 21 -1 0 -14 -8 -29 -17z"/> <path d="M299 291 c-20 -16 -21 -21 -10 -35 21 -25 107 -46 188 -46 75 0 213 25 213 39 0 21 -54 29 -167 24 -137 -7 -198 1 -189 23 7 19 -7 18 -35 -5z"/> <path d="M148 210 c-33 -10 -108 -52 -108 -60 0 -28 126 -49 335 -57 288 -10 552 41 528 103 -3 8 -9 14 -14 14 -4 0 -6 -7 -3 -15 8 -21 -40 -40 -141 -56 -104 -16 -461 -17 -540 -1 -96 20 -99 42 -9 67 46 13 47 13 14 13 -19 0 -47 -3 -62 -8z"/> <path d="M922 124 c-70 -48 -301 -80 -517 -71 -77 3 -151 9 -165 13 -18 5 -22 4 -15 -5 33 -34 430 -40 576 -7 76 16 147 50 156 72 9 23 1 23 -35 -2z"/> </g> </svg> 