 <svg  version="1.0" xmlns="http://www.w3.org/2000/svg"  width="100.000000pt" height="100.000000pt" viewBox="0 0 100.000000 100.000000"  preserveAspectRatio="xMidYMid meet">  <g transform="translate(0.000000,100.000000) scale(0.050000,-0.050000)" fill="#0f9b2e" stroke="none"> <path d="M722 1968 c-682 -183 -961 -1096 -478 -1563 l67 -64 680 681 679 680 -80 68 c-229 195 -581 275 -868 198z m313 -104 c17 -12 -1 -41 -62 -101 l-86 -85 -188 37 -187 37 108 46 c152 66 362 99 415 66z m324 -94 c139 -70 140 -81 16 -204 l-109 -110 -118 76 c-65 42 -122 79 -127 83 -16 11 187 205 214 205 14 0 70 -22 124 -50z m-623 -189 c45 -11 45 -12 -21 -76 l-67 -65 -88 90 -87 89 108 -13 c60 -7 130 -18 155 -25z m-231 -285 c-79 -79 -83 -75 -98 96 l-12 138 87 -85 87 -85 -64 -64z m529 164 c144 -83 145 -90 24 -212 l-107 -108 -105 104 -106 105 84 85 c100 102 81 100 210 26z m-734 -207 l25 -136 -87 -90 c-84 -85 -89 -87 -99 -43 -18 75 16 288 64 399 51 118 52 117 97 -130z m470 -93 l99 -100 -109 -110 c-133 -134 -118 -136 -206 14 l-74 125 84 85 c103 105 88 106 206 -14z m-323 -267 c28 -47 65 -98 83 -113 29 -24 20 -39 -83 -143 -140 -142 -132 -141 -206 -12 -79 137 -78 147 33 259 115 117 110 116 173 9z"/> <path d="M1013 983 l-677 -677 87 -74 c769 -658 1930 251 1474 1155 -49 96 -174 273 -194 273 -7 0 -318 -305 -690 -677z m798 286 c11 -54 -171 -282 -197 -248 -179 238 -178 224 -40 363 l114 115 56 -85 c30 -47 61 -112 67 -145z m-407 -144 c16 -19 51 -73 77 -120 l47 -86 -88 -89 -89 -90 -105 104 -106 105 104 105 c117 119 118 119 160 71z m463 -250 c-38 -263 -142 -434 -148 -245 -1 33 -13 101 -27 150 l-25 90 91 95 c116 122 137 104 109 -90z m-697 -115 l99 -100 -93 -93 -92 -93 -87 52 c-184 109 -181 97 -58 223 132 134 111 133 231 11z m440 -184 l14 -106 -92 89 -92 89 65 67 64 67 14 -50 c7 -27 19 -97 27 -156z m-717 -291 c-117 -121 -121 -122 -252 -55 -139 70 -140 80 -12 209 l114 115 126 -82 126 -82 -102 -105z m558 192 l79 -82 -138 12 c-169 15 -173 19 -102 93 72 75 67 76 161 -23z m-46 -197 c164 0 -15 -101 -245 -138 -217 -35 -242 -16 -130 98 l94 95 103 -27 c57 -15 137 -28 178 -28z"/> </g> </svg> 